<svg width="85" height="85" viewBox="0 0 85 85" fill="none" xmlns="http://www.w3.org/2000/svg">
<circle cx="43" cy="43" r="31.5" stroke="black"/>
<path d="M40.68 32.176C40.68 31.7653 40.8107 31.4387 41.072 31.196C41.352 30.9533 41.7067 30.832 42.136 30.832C42.5653 30.832 42.9107 30.9533 43.172 31.196C43.4333 31.4387 43.564 31.7653 43.564 32.176C43.564 32.568 43.4333 32.8853 43.172 33.128C42.9107 33.3707 42.5653 33.492 42.136 33.492C41.7067 33.492 41.352 33.3707 41.072 33.128C40.8107 32.8853 40.68 32.568 40.68 32.176ZM43.116 36.712V52H41.128V36.712H43.116Z" fill="black"/>
</svg>
