<svg width="85" height="85" viewBox="0 0 85 85" fill="none" xmlns="http://www.w3.org/2000/svg">
<circle cx="43" cy="43" r="31.5" stroke="black"/>
<path d="M43 31.644C44.792 31.644 46.22 32.148 47.284 33.156C48.3667 34.1453 48.908 35.508 48.908 37.244C48.908 39.2787 48.292 40.7813 47.06 41.752C45.828 42.7227 44.12 43.2267 41.936 43.264V46.792H40.06V41.892H40.984C42.776 41.892 44.2227 41.5653 45.324 40.912C46.4253 40.2587 46.976 39.036 46.976 37.244C46.976 36.012 46.612 35.0507 45.884 34.36C45.156 33.6507 44.176 33.296 42.944 33.296C41.656 33.296 40.62 33.66 39.836 34.388C39.052 35.0973 38.66 36.0307 38.66 37.188H36.784C36.7653 36.0867 37.0173 35.116 37.54 34.276C38.0627 33.436 38.8 32.792 39.752 32.344C40.704 31.8773 41.7867 31.644 43 31.644ZM42.3 49.48V52H39.724V49.48H42.3Z" fill="black"/>
</svg>
