<svg width="85" height="85" viewBox="0 0 85 85" fill="none" xmlns="http://www.w3.org/2000/svg">
<path d="M6.55995 63.25L42.5 1L78.44 63.25H6.55995Z" stroke="black"/>
<path d="M43.872 32.428L43.62 46.82H41.968L41.744 32.428H43.872ZM42.892 52.14C42.4813 52.14 42.136 52 41.856 51.72C41.5947 51.44 41.464 51.0947 41.464 50.684C41.464 50.2733 41.5947 49.9373 41.856 49.676C42.136 49.396 42.4813 49.256 42.892 49.256C43.284 49.256 43.6107 49.396 43.872 49.676C44.152 49.9373 44.292 50.2733 44.292 50.684C44.292 51.0947 44.152 51.44 43.872 51.72C43.6107 52 43.284 52.14 42.892 52.14Z" fill="black"/>
</svg>
